<svg xmlns="http://www.w3.org/2000/svg" version="1.1" xmlns:xlink="http://www.w3.org/1999/xlink" width="341" height="452"><svg xmlns="http://www.w3.org/2000/svg" version="1.1" xmlns:xlink="http://www.w3.org/1999/xlink" width="341" height="452"><svg width="341" height="452" viewBox="0 0 341 452" fill="none" xmlns="http://www.w3.org/2000/svg">
<path d="M188.5 225.5H164.5C151 243 139.5 263 130 285.5C120.5 308 116 325 116 336.5C116 347 120 352.5 128.5 352.5C134 352.5 140 347 140 337C140 331.5 135.5 324 129.5 324C128 324 126.5 324 126 324.5C126 316 133.5 296 146 275C158 254 182.5 236.5 209 236.5C237.5 236.5 262.5 259 262.5 293C262.5 316.5 255 341 240 365.5C225 390 205 410.5 179.5 427C154 443.5 128.5 451.5 102 451.5C41.5 451.5 11.5 415 11.5 341.5C11.5 299.5 30.5 244 64.5 194.5C45 184 29 169 17.5 149.5C6 130.5 1.30385e-08 112 1.30385e-08 94.5C1.30385e-08 70 8.5 48.5 25.5 29C42.5 9.49998 65 -1.81198e-05 93 -1.81198e-05C135 -1.81198e-05 166 27.5 166 63.5C166 93 146.5 111.5 122 111.5C117.5 111.5 114.5 111 112.5 110.5C118.5 107.5 121.5 102.5 121.5 96C121.5 89.5 116 84.5 109.5 84.5C100 84.5 94 94 94 104C94 116 102 131 117.5 140.5L119 139C170.5 88 219 62.5 264 62.5C284.5 62.5 302 67.5 317.5 77.5C333 87.5 340.5 101.5 340.5 119.5C340.5 139.5 332.5 158 316.5 174.5C300 191 280.5 204 257.5 212.5C234.5 221 211.5 225.5 188.5 225.5ZM257.5 111C244.5 111 228 123.5 207.5 149C217.5 148.5 229 144 242 135.5C254.5 127 261 121 261.5 116.5C261.5 113 260 111 257.5 111ZM303.5 82.5C323 91 332.5 99.5 334.5 117C334.5 100.5 325.5 87 307 77C304.5 75.5 302.5 76 301.5 78.5C301 80 301.5 81.5 303.5 82.5ZM222 250.5C242.5 256 254 267.5 256.5 284.5C255 268 243.5 250.5 225.5 244.5C222.5 243.5 220.5 244.5 220 247C219.5 248.5 220.5 250 222 250.5ZM110 338L110.5 337C107.5 347.5 105.5 364.5 129 359C113 359.5 108 348 110 338ZM127.5 21C146.5 29.5 157 41.5 158.5 57C158.5 39.5 149.5 25.5 131 15.5C128.5 14 126.5 14.5 125.5 17C125 18.5 125.5 20 127.5 21ZM108 141C112.5 149.5 124 156 142.5 160C160.5 164 178 164 195.5 159.5C180 161.5 163 160.5 144.5 156C126 152 113.5 147 108 141Z" fill="black"></path>
</svg></svg><style>@media (prefers-color-scheme: light) { :root { filter: none; } }
@media (prefers-color-scheme: dark) { :root { filter: contrast(0.425531914893617) brightness(4); } }
</style></svg>